<svg xmlns="http://www.w3.org/2000/svg" xml:space="preserve" width="107.942mm" height="88.0596mm" version="1.1" style="shape-rendering:geometricPrecision; text-rendering:geometricPrecision; image-rendering:optimizeQuality; fill-rule:evenodd; clip-rule:evenodd"
  viewBox="0 0 11617.99 9478.01"
  xmlns:xlink="http://www.w3.org/1999/xlink"
  xmlns:xodm="http://www.corel.com/coreldraw/odm/2003">
  <defs>
    <style type="text/css">
      <![CDATA[
    .str1 {stroke:black;stroke-width:151.88;stroke-miterlimit:22.9256}
    .str2 {stroke:#FF9933;stroke-width:151.88;stroke-miterlimit:22.9256}
    .str0 {stroke:#FF9933;stroke-width:8.2;stroke-miterlimit:22.9256}
    .fil4 {fill:none}
    .fil2 {fill:none;fill-rule:nonzero}
    .fil0 {fill:black;fill-rule:nonzero}
    .fil3 {fill:black;fill-rule:nonzero}
    .fil1 {fill:#FF9933;fill-rule:nonzero}
   ]]>
    </style>
  </defs>
  <g id="Camada_x0020_1">
    <metadata id="CorelCorpID_0Corel-Layer" />
    <path class="fil0" d="M1450.9 5412.14l-379.54 -552.72c166.89,-56.53 374.16,-253.48 374.16,-536.58 0,-172.73 -56.53,-326.16 -156.12,-423.07 -113.06,-113.06 -242.27,-172.28 -535.68,-172.28l-678.34 0c-61.91,0 -75.37,29.61 -75.37,78.07l0 1614.66c0,62.35 26.92,78.51 75.37,78.51l266.49 0c48.46,0 78.07,-16.16 78.07,-78.51l0 -1315.86 358.02 0c139.98,0 247.65,88.83 247.65,229.26 0,126.51 -123.82,218.48 -255.72,218.48l-53.84 0c-61.91,0 -78.07,29.61 -78.07,78.07l0 215.79c0,75.37 5.38,104.98 29.61,137.28l290.72 434.28c37.68,56.98 69.98,81.21 134.59,81.21l317.63 0c51.15,0 64.6,-48.9 40.37,-86.59z" />
    <path id="1" class="fil0" d="M3076.77 5121.86l-858.69 0 0 -355.31 721.41 0c61.91,0 78.05,-29.61 78.05,-78.07l0 -209.97c0,-48.46 -16.14,-78.07 -78.05,-78.07l-721.41 0 0 -293.4 812.93 0c61.91,0 78.07,-29.61 78.07,-78.07l0 -223.42c0,-48.46 -16.16,-78.07 -78.07,-78.07l-1160.18 0c-61.91,0 -78.07,29.61 -78.07,78.07l0 1615.1c0,48.46 16.16,78.07 78.07,78.07l1205.94 0c61.92,0 78.07,-29.61 78.07,-78.07l0 -220.73c0,-48.46 -16.14,-78.07 -78.07,-78.07z" />
    <path id="2" class="fil0" d="M4877.63 5372.2l-102.29 -115.75c69.98,-88.83 94.21,-185.73 94.21,-323.01l0 -635.28c0,-425.32 -403.77,-608.36 -724.1,-608.36 -320.32,0 -718.72,183.04 -718.72,608.36l0 635.28c0,425.31 398.4,608.36 718.72,608.36 115.75,0 228.8,-10.77 341.86,-59.23l129.21 131.9c34.99,34.99 78.07,29.61 121.13,-13.45l129.21 -104.98c45.77,-45.77 45.77,-91.52 10.77,-123.83zm-428.01 -479.14c0,172.28 -123.82,271.88 -301.49,271.88 -174.97,0 -298.8,-99.6 -298.8,-271.88l0 -559.9c0,-172.28 123.83,-271.88 298.8,-271.88 177.67,0 301.49,99.6 301.49,271.88l0 559.9z" />
    <path id="3" class="fil0" d="M6543.87 3727.49l-266.5 0c-48.45,0 -78.07,16.16 -78.07,78.07l0 1092.88c0,169.58 -113.06,266.5 -290.71,266.5 -177.66,0 -288.02,-96.91 -288.02,-266.5l0 -1092.88c0,-61.91 -29.61,-78.07 -78.07,-78.07l-266.5 0c-48.46,0 -78.07,16.16 -78.07,78.07l0 1152.11c0,422.62 390.32,581.43 710.65,581.43 320.33,0 713.34,-158.81 713.34,-581.43l0 -1152.11c0,-61.91 -29.61,-78.07 -78.07,-78.07z" />
    <path id="4" class="fil0" d="M8282.79 5121.86l-858.69 0 0 -355.31 721.41 0c61.91,0 78.05,-29.61 78.05,-78.07l0 -209.97c0,-48.46 -16.14,-78.07 -78.05,-78.07l-721.41 0 0 -293.4 812.93 0c61.91,0 78.07,-29.61 78.07,-78.07l0 -223.42c0,-48.46 -16.16,-78.07 -78.07,-78.07l-1160.18 0c-61.91,0 -78.07,29.61 -78.07,78.07l0 1615.1c0,48.46 16.16,78.07 78.07,78.07l1205.94 0c61.92,0 78.07,-29.61 78.07,-78.07l0 -220.73c0,-48.46 -16.14,-78.07 -78.07,-78.07z" />
    <path id="5" class="fil0" d="M9547.96 4470.44c-107.67,-43.07 -503.37,-102.29 -503.37,-266.5 0,-121.13 148.05,-156.12 236.89,-156.12 80.76,0 177.66,24.23 228.8,72.67 32.3,32.3 45.77,53.84 56.53,80.76 13.45,35 21.54,72.68 72.68,72.68l263.79 0c61.91,0 78.07,-10.77 78.07,-75.37 0,-355.32 -374.17,-511.44 -716.03,-511.44 -336.48,13.45 -654.12,185.73 -654.12,535.67 0,341.86 250.35,449.53 522.22,535.67 228.81,72.68 468.38,75.37 468.38,226.11 0,150.75 -118.44,183.05 -263.79,183.05 -99.6,0 -209.97,-24.23 -263.81,-88.83 -34.99,-40.38 -48.46,-75.37 -51.15,-110.37 -5.38,-67.3 -34.99,-75.37 -96.9,-75.37l-261.11 0c-61.91,0 -78.05,13.46 -78.05,75.37 0,376.85 387.63,570.66 724.1,570.66 414.54,0 716.03,-183.04 716.03,-565.28 0,-366.09 -285.34,-444.15 -479.16,-503.37l0 0z" />
    <path id="6" class="fil0" d="M11539.93 3727.49l-1249.01 0c-61.91,0 -78.05,29.61 -78.05,78.07l0 223.42c0,48.46 16.14,78.07 78.05,78.07l414.54 0 0 1313.61c0,61.91 29.61,78.07 78.07,78.07l266.5 0c48.45,0 78.07,-16.16 78.07,-78.07l0 -1313.61 411.84 0c61.92,0 78.07,-29.61 78.07,-78.07l0 -223.42c0,-48.46 -16.14,-78.07 -78.07,-78.07z" />
    <polygon class="fil1" points="9416.14,7218.05 9197.7,7218.05 9345.83,6006.19 9564.27,6006.19 " />
    <path id="1" class="fil1" d="M9985.23 7073.26c34.59,0 65.84,-10.04 93.74,-29.85 27.9,-19.82 51.89,-46.59 71.7,-79.79 19.8,-33.2 34.86,-71.97 45.46,-116.06 10.6,-44.36 15.91,-90.66 15.91,-139.48 0,-69.75 -11.72,-121.35 -35.43,-154.28 -23.71,-32.91 -59.7,-49.65 -107.69,-49.65 -34.59,0 -65.84,10.04 -93.74,29.57 -27.9,19.54 -51.61,46.03 -71.13,79.51 -19.52,33.75 -34.59,72.53 -45.19,116.61 -10.6,44.37 -15.9,90.95 -15.9,140.33 0,69.75 11.71,121.08 35.14,153.99 23.44,32.64 59.14,49.1 107.13,49.1zm-18.41 158.18c-47.42,0 -91.23,-8.09 -131.68,-23.99 -40.45,-15.9 -75.32,-39.06 -104.62,-69.75 -29.29,-30.69 -52.45,-68.63 -69.19,-113.26 -16.74,-44.63 -25.1,-95.68 -25.1,-153.16 0,-74.2 11.99,-143.67 35.7,-207.83 23.71,-64.17 56.08,-119.69 97.08,-166.55 41.01,-47.14 88.71,-83.97 143.4,-110.75 54.68,-26.78 112.98,-40.17 174.91,-40.17 47.42,0 91.5,8.08 131.96,23.99 40.45,15.9 75.32,39.05 104.89,69.75 29.58,30.69 52.73,68.63 69.47,113.26 16.74,44.63 25.11,95.68 25.11,153.15 0,73.65 -12,142.56 -35.99,206.45 -23.99,64.16 -56.35,119.68 -97.36,166.82 -41.01,47.15 -88.99,84.25 -143.67,111.31 -54.68,27.06 -112.98,40.73 -174.91,40.73z" />
    <polygon id="2" class="fil1" points="11451.52,6006.19 11428.92,6185.29 11097.51,6185.29 10970.29,7218.05 10754.37,7218.05 10880.74,6185.29 10548.49,6185.29 10570.24,6006.19 " />
    <polygon id="3" class="fil2 str0" points="9416.14,7218.05 9197.7,7218.05 9345.83,6006.19 9564.27,6006.19 " />
    <path id="4" class="fil2 str0" d="M9985.23 7073.26c34.59,0 65.84,-10.04 93.74,-29.85 27.9,-19.82 51.89,-46.59 71.7,-79.79 19.8,-33.2 34.86,-71.97 45.46,-116.06 10.6,-44.36 15.91,-90.66 15.91,-139.48 0,-69.75 -11.72,-121.35 -35.43,-154.28 -23.71,-32.91 -59.7,-49.65 -107.69,-49.65 -34.59,0 -65.84,10.04 -93.74,29.57 -27.9,19.54 -51.61,46.03 -71.13,79.51 -19.52,33.75 -34.59,72.53 -45.19,116.61 -10.6,44.37 -15.9,90.95 -15.9,140.33 0,69.75 11.71,121.08 35.14,153.99 23.44,32.64 59.14,49.1 107.13,49.1zm-18.41 158.18c-47.42,0 -91.23,-8.09 -131.68,-23.99 -40.45,-15.9 -75.32,-39.06 -104.62,-69.75 -29.29,-30.69 -52.45,-68.63 -69.19,-113.26 -16.74,-44.63 -25.1,-95.68 -25.1,-153.16 0,-74.2 11.99,-143.67 35.7,-207.83 23.71,-64.17 56.08,-119.69 97.08,-166.55 41.01,-47.14 88.71,-83.97 143.4,-110.75 54.68,-26.78 112.98,-40.17 174.91,-40.17 47.42,0 91.5,8.08 131.96,23.99 40.45,15.9 75.32,39.05 104.89,69.75 29.58,30.69 52.73,68.63 69.47,113.26 16.74,44.63 25.11,95.68 25.11,153.15 0,73.65 -12,142.56 -35.99,206.45 -23.99,64.16 -56.35,119.68 -97.36,166.82 -41.01,47.15 -88.99,84.25 -143.67,111.31 -54.68,27.06 -112.98,40.73 -174.91,40.73z" />
    <polygon id="5" class="fil2 str0" points="11451.52,6006.19 11428.92,6185.29 11097.51,6185.29 10970.29,7218.05 10754.37,7218.05 10880.74,6185.29 10548.49,6185.29 10570.24,6006.19 " />
    <path class="fil3 str1" d="M7992.16 1294.06l-581.73 1007.58 354.11 204.45 -1289.97 598.69 -126.5 -1416.49 354.12 204.45 581.73 -1007.58 708.24 408.9zm-290.86 503.79m-113.81 606.01m-467.93 401.57m-708.24 -408.89m113.81 -606.03m467.93 -401.56m644.98 -299.35" />
    <g>
      <path class="fil0" d="M9719.65 2533.77l0 0 8.1 -13.25 8.71 -12.73 9.27 -12.18 9.79 -11.61 10.3 -11.03 10.76 -10.45 11.22 -9.84 11.62 -9.23 12 -8.61 12.37 -8 12.7 -7.35 12.99 -6.72 13.28 -6.08 13.52 -5.42 13.77 -4.77 13.96 -4.1 14.14 -3.44 14.29 -2.76 14.43 -2.09 14.54 -1.39 14.62 -0.69 14.68 0.01 14.72 0.73 14.71 1.44 14.7 2.18 14.65 2.92 14.56 3.66 14.47 4.4 14.3 5.17 14.14 5.93 13.93 6.68 13.68 7.44 -75.95 131.53 -6.91 -3.76 -6.99 -3.36 -7.06 -2.95 -7.11 -2.57 -7.18 -2.18 -7.23 -1.82 -7.28 -1.44 -7.31 -1.09 -7.33 -0.72 -7.34 -0.36 -7.34 -0.01 -7.33 0.34 -7.29 0.7 -7.25 1.04 -7.2 1.39 -7.11 1.73 -7.03 2.07 -6.91 2.4 -6.8 2.72 -6.67 3.06 -6.51 3.37 -6.35 3.67 -6.17 3.99 -6 4.29 -5.78 4.59 -5.56 4.9 -5.35 5.18 -5.12 5.49 -4.86 5.78 -4.63 6.07 -4.36 6.37 -4.1 6.71 0 0 -131.53 -75.95zm111.18 414.94l0 0 -13.28 -8.13 -12.75 -8.72 -12.19 -9.28 -11.63 -9.82 -11.04 -10.32 -10.46 -10.78 -9.85 -11.23 -9.23 -11.63 -8.61 -12.02 -7.99 -12.39 -7.35 -12.71 -6.72 -13 -6.06 -13.29 -5.41 -13.53 -4.76 -13.77 -4.1 -13.96 -3.42 -14.15 -2.74 -14.29 -2.07 -14.43 -1.38 -14.53 -0.69 -14.62 0.03 -14.67 0.73 -14.7 1.45 -14.7 2.18 -14.68 2.92 -14.64 3.66 -14.54 4.41 -14.43 5.16 -14.29 5.92 -14.12 6.67 -13.91 7.43 -13.65 131.53 75.95 -3.75 6.89 -3.35 6.97 -2.95 7.03 -2.56 7.11 -2.18 7.17 -1.82 7.22 -1.45 7.28 -1.09 7.3 -0.72 7.33 -0.37 7.34 -0.01 7.34 0.34 7.33 0.69 7.3 1.03 7.25 1.39 7.19 1.72 7.11 2.06 7.03 2.4 6.93 2.71 6.8 3.05 6.66 3.37 6.52 3.67 6.35 3.98 6.18 4.29 5.98 4.59 5.79 4.9 5.58 5.19 5.36 5.48 5.11 5.79 4.89 6.08 4.63 6.39 4.38 6.73 4.11 0 0 -75.95 131.53zm414.94 -111.18l0 0 -8.1 13.25 -8.71 12.73 -9.27 12.18 -9.79 11.61 -10.3 11.03 -10.76 10.45 -11.22 9.84 -11.62 9.23 -12 8.61 -12.37 8 -12.7 7.35 -12.99 6.72 -13.28 6.08 -13.52 5.42 -13.77 4.77 -13.96 4.1 -14.14 3.44 -14.29 2.76 -14.43 2.09 -14.54 1.39 -14.62 0.69 -14.68 -0.01 -14.72 -0.73 -14.71 -1.44 -14.7 -2.18 -14.65 -2.92 -14.56 -3.66 -14.47 -4.4 -14.3 -5.17 -14.14 -5.93 -13.93 -6.68 -13.68 -7.44 75.95 -131.53 6.91 3.76 6.99 3.36 7.06 2.95 7.11 2.57 7.18 2.18 7.23 1.82 7.28 1.44 7.31 1.09 7.33 0.72 7.34 0.36 7.34 0.01 7.33 -0.34 7.29 -0.7 7.25 -1.04 7.2 -1.39 7.11 -1.73 7.03 -2.07 6.91 -2.4 6.8 -2.72 6.67 -3.06 6.51 -3.37 6.35 -3.67 6.17 -3.99 6 -4.29 5.78 -4.59 5.56 -4.9 5.35 -5.18 5.12 -5.49 4.86 -5.78 4.63 -6.07 4.36 -6.37 4.1 -6.71 0 0 131.53 75.95zm-111.18 -414.94l13.28 8.13 12.75 8.72 12.19 9.28 11.63 9.82 11.04 10.32 10.46 10.78 9.85 11.23 9.23 11.63 8.61 12.02 7.99 12.39 7.35 12.71 6.72 13 6.06 13.29 5.41 13.53 4.76 13.77 4.1 13.96 3.42 14.15 2.74 14.29 2.07 14.43 1.38 14.53 0.69 14.62 -0.03 14.67 -0.73 14.7 -1.45 14.7 -2.18 14.68 -2.92 14.64 -3.66 14.54 -4.41 14.43 -5.16 14.29 -5.92 14.12 -6.67 13.91 -7.43 13.65 -131.53 -75.95 3.75 -6.89 3.35 -6.97 2.95 -7.03 2.56 -7.11 2.18 -7.17 1.82 -7.22 1.45 -7.28 1.09 -7.3 0.72 -7.33 0.37 -7.34 0.01 -7.34 -0.34 -7.33 -0.69 -7.3 -1.03 -7.25 -1.39 -7.19 -1.72 -7.11 -2.06 -7.03 -2.4 -6.93 -2.71 -6.8 -3.05 -6.66 -3.37 -6.52 -3.67 -6.35 -3.98 -6.18 -4.29 -5.98 -4.59 -5.79 -4.9 -5.58 -5.19 -5.36 -5.48 -5.11 -5.79 -4.89 -6.08 -4.63 -6.39 -4.38 -6.73 -4.11 75.95 -131.53zm-677.41 -2064.17l75.95 -131.53 0 0 74.35 45.46 71.24 48.69 68.06 51.74 64.83 54.63 61.57 57.41 58.25 59.99 54.89 62.48 51.49 64.77 48.06 66.94 44.57 68.96 41.07 70.83 37.5 72.55 33.9 74.13 30.29 75.56 26.62 76.86 22.9 78 19.16 79.01 15.38 79.86 11.56 80.58 7.7 81.15 3.8 81.57 -0.15 81.88 -4.12 82 -8.14 81.99 -12.21 81.85 -16.31 81.54 -20.45 81.09 -24.6 80.49 -28.82 79.74 -33.08 78.83 -37.36 77.79 -41.65 76.56 -131.53 -75.95 37.99 -69.82 34.02 -70.85 30.1 -71.79 26.24 -72.55 22.39 -73.23 18.6 -73.77 14.82 -74.18 11.11 -74.45 7.41 -74.61 3.76 -74.64 0.13 -74.51 -3.45 -74.28 -7.01 -73.9 -10.53 -73.39 -14 -72.74 -17.46 -71.97 -20.86 -71.05 -24.25 -69.99 -27.58 -68.82 -30.89 -67.52 -34.14 -66.05 -37.37 -64.46 -40.57 -62.76 -43.73 -60.91 -46.84 -58.94 -49.94 -56.82 -52.98 -54.59 -56.01 -52.22 -58.99 -49.73 -61.96 -47.11 -64.89 -44.34 -67.83 -41.48 0 0zm-2107.5 564.71l-131.53 -75.95 45.46 -74.35 48.69 -71.24 51.73 -68.06 54.64 -64.83 57.4 -61.57 60.02 -58.25 62.47 -54.89 64.77 -51.49 66.94 -48.06 68.95 -44.57 70.84 -41.07 72.55 -37.5 74.12 -33.9 75.56 -30.29 76.87 -26.62 78 -22.9 79 -19.16 79.87 -15.38 80.57 -11.56 81.15 -7.7 81.58 -3.8 81.88 0.15 81.99 4.12 82 8.14 81.85 12.21 81.54 16.31 81.09 20.45 80.49 24.6 79.74 28.82 78.83 33.08 77.79 37.36 76.56 41.65 -75.95 131.53 -69.82 -37.99 -70.85 -34.02 -71.79 -30.1 -72.55 -26.24 -73.23 -22.39 -73.77 -18.6 -74.18 -14.82 -74.45 -11.11 -74.62 -7.41 -74.63 -3.76 -74.51 -0.13 -74.29 3.45 -73.9 7.01 -73.38 10.53 -72.75 14 -71.96 17.46 -71.05 20.86 -70 24.25 -68.82 27.58 -67.51 30.89 -66.05 34.14 -64.47 37.37 -62.75 40.57 -60.91 43.73 -58.94 46.84 -56.83 49.94 -54.59 52.98 -52.21 56.01 -49.74 58.99 -47.1 61.96 -44.34 64.89 -41.48 67.83z" />
    </g>
    <path class="fil4 str1" d="M9126.56 1920.72c178.97,-309.99 72.76,-706.38 -237.22,-885.35 -309.99,-178.97 -706.38,-72.76 -885.35,237.23" />
    <g>
      <path class="fil0" d="M8638.81 2613.66l421.99 -730.91 131.53 75.95 -421.99 730.91 -131.53 -75.95zm223.88 371.62l-131.54 -75.95 0 0 3.76 -6.89 3.35 -6.97 2.95 -7.03 2.56 -7.11 2.18 -7.17 1.82 -7.22 1.45 -7.28 1.09 -7.3 0.72 -7.33 0.37 -7.34 0.01 -7.34 -0.34 -7.33 -0.69 -7.3 -1.03 -7.25 -1.39 -7.19 -1.72 -7.11 -2.06 -7.03 -2.4 -6.93 -2.71 -6.8 -3.05 -6.66 -3.37 -6.52 -3.67 -6.35 -3.98 -6.18 -4.29 -5.98 -4.59 -5.79 -4.9 -5.58 -5.19 -5.35 -5.48 -5.12 -5.79 -4.89 -6.08 -4.63 -6.39 -4.38 -6.73 -4.1 75.95 -131.54 13.28 8.13 12.75 8.72 12.19 9.28 11.63 9.82 11.04 10.32 10.46 10.78 9.85 11.23 9.23 11.65 8.61 12.01 7.99 12.39 7.35 12.71 6.72 13 6.07 13.29 5.4 13.54 4.76 13.76 4.1 13.97 3.42 14.14 2.74 14.3 2.07 14.42 1.38 14.53 0.69 14.62 -0.03 14.67 -0.73 14.7 -1.45 14.7 -2.18 14.68 -2.92 14.64 -3.66 14.55 -4.41 14.43 -5.16 14.28 -5.92 14.12 -6.67 13.91 -7.43 13.65 0 0zm-414.94 111.18l75.95 -131.54 0 0 6.91 3.77 6.99 3.36 7.06 2.95 7.11 2.57 7.18 2.18 7.23 1.82 7.28 1.44 7.31 1.09 7.33 0.72 7.34 0.36 7.34 0.01 7.33 -0.34 7.29 -0.7 7.25 -1.04 7.19 -1.39 7.13 -1.73 7.03 -2.07 6.91 -2.4 6.8 -2.72 6.67 -3.06 6.51 -3.37 6.35 -3.67 6.17 -3.99 6 -4.29 5.78 -4.59 5.56 -4.9 5.35 -5.18 5.11 -5.49 4.88 -5.77 4.63 -6.08 4.36 -6.37 4.09 -6.71 131.54 75.95 -8.1 13.25 -8.71 12.73 -9.27 12.18 -9.79 11.61 -10.3 11.03 -10.77 10.45 -11.2 9.84 -11.62 9.23 -12.01 8.61 -12.36 8 -12.7 7.35 -12.99 6.72 -13.28 6.08 -13.52 5.42 -13.77 4.77 -13.96 4.1 -14.14 3.44 -14.29 2.76 -14.43 2.09 -14.54 1.39 -14.62 0.69 -14.69 -0.01 -14.71 -0.73 -14.71 -1.44 -14.7 -2.18 -14.65 -2.92 -14.56 -3.66 -14.47 -4.4 -14.32 -5.17 -14.13 -5.93 -13.93 -6.68 -13.68 -7.44 0 0zm-111.18 -414.94l131.54 75.95 0 0 -3.76 6.89 -3.35 6.97 -2.95 7.03 -2.56 7.11 -2.18 7.17 -1.82 7.22 -1.45 7.28 -1.09 7.3 -0.72 7.33 -0.37 7.34 -0.01 7.34 0.34 7.33 0.69 7.3 1.03 7.25 1.39 7.19 1.72 7.11 2.06 7.03 2.4 6.93 2.71 6.8 3.05 6.66 3.37 6.52 3.67 6.35 3.98 6.18 4.29 5.98 4.59 5.79 4.9 5.58 5.19 5.35 5.48 5.12 5.79 4.89 6.08 4.63 6.39 4.38 6.73 4.1 -75.95 131.54 -13.28 -8.13 -12.75 -8.72 -12.19 -9.28 -11.63 -9.82 -11.04 -10.32 -10.46 -10.78 -9.85 -11.23 -9.23 -11.65 -8.61 -12.01 -7.99 -12.39 -7.35 -12.71 -6.72 -13 -6.07 -13.29 -5.4 -13.54 -4.76 -13.76 -4.1 -13.97 -3.42 -14.14 -2.74 -14.3 -2.07 -14.42 -1.38 -14.53 -0.69 -14.62 0.03 -14.67 0.73 -14.7 1.45 -14.7 2.18 -14.68 2.92 -14.64 3.66 -14.55 4.41 -14.43 5.16 -14.28 5.92 -14.12 6.67 -13.91 7.43 -13.65 0 0zm414.94 -111.18l-75.95 131.54 -6.91 -3.77 -6.99 -3.36 -7.06 -2.95 -7.11 -2.57 -7.18 -2.18 -7.23 -1.82 -7.28 -1.44 -7.31 -1.09 -7.33 -0.72 -7.34 -0.36 -7.34 -0.01 -7.33 0.34 -7.29 0.7 -7.25 1.04 -7.19 1.39 -7.13 1.73 -7.03 2.07 -6.91 2.4 -6.8 2.72 -6.67 3.06 -6.51 3.37 -6.35 3.67 -6.17 3.99 -6 4.29 -5.78 4.59 -5.56 4.9 -5.35 5.18 -5.11 5.49 -4.88 5.77 -4.63 6.08 -4.36 6.37 -4.09 6.71 -131.54 -75.95 8.1 -13.25 8.71 -12.73 9.27 -12.18 9.79 -11.61 10.3 -11.03 10.77 -10.45 11.2 -9.84 11.62 -9.23 12.01 -8.61 12.36 -8 12.7 -7.35 12.99 -6.72 13.28 -6.08 13.52 -5.42 13.77 -4.77 13.96 -4.1 14.14 -3.44 14.29 -2.76 14.43 -2.09 14.54 -1.39 14.62 -0.69 14.69 0.01 14.71 0.73 14.71 1.44 14.7 2.18 14.65 2.92 14.56 3.66 14.47 4.4 14.32 5.17 14.13 5.93 13.93 6.68 13.68 7.44z" />
    </g>
    <path class="fil1 str2" d="M3061.21 8183.96l581.73 -1007.58 -354.11 -204.45 1289.97 -598.69 126.5 1416.49 -354.12 -204.45 -581.73 1007.58 -708.24 -408.9zm290.86 -503.79m113.81 -606.01m467.93 -401.57m708.24 408.89m-113.81 606.03m-467.93 401.56m-644.98 299.35" />
    <g>
      <path class="fil1" d="M1333.72 6944.24l0 0 -8.1 13.25 -8.71 12.73 -9.27 12.18 -9.79 11.61 -10.3 11.03 -10.76 10.45 -11.22 9.84 -11.62 9.23 -12 8.61 -12.37 8 -12.7 7.35 -12.99 6.72 -13.27 6.08 -13.53 5.42 -13.77 4.77 -13.96 4.1 -14.14 3.44 -14.29 2.76 -14.43 2.09 -14.54 1.39 -14.62 0.69 -14.68 -0.01 -14.72 -0.73 -14.71 -1.44 -14.7 -2.18 -14.65 -2.92 -14.56 -3.66 -14.47 -4.4 -14.3 -5.17 -14.14 -5.93 -13.93 -6.68 -13.68 -7.44 75.95 -131.53 6.91 3.76 6.99 3.36 7.06 2.95 7.11 2.57 7.18 2.18 7.23 1.82 7.28 1.44 7.31 1.09 7.33 0.72 7.34 0.36 7.34 0.01 7.33 -0.34 7.29 -0.7 7.25 -1.04 7.2 -1.39 7.11 -1.73 7.03 -2.07 6.91 -2.4 6.8 -2.72 6.67 -3.06 6.51 -3.37 6.35 -3.67 6.17 -3.99 6 -4.29 5.78 -4.59 5.56 -4.9 5.35 -5.18 5.12 -5.49 4.86 -5.78 4.63 -6.07 4.36 -6.37 4.1 -6.71 0 0 131.53 75.95zm-111.18 -414.94l0 0 13.28 8.13 12.75 8.72 12.19 9.28 11.63 9.82 11.04 10.32 10.46 10.78 9.85 11.23 9.23 11.63 8.61 12.02 7.99 12.39 7.35 12.71 6.72 13 6.06 13.29 5.41 13.53 4.76 13.77 4.1 13.96 3.42 14.15 2.74 14.29 2.07 14.43 1.38 14.53 0.69 14.62 -0.03 14.67 -0.73 14.7 -1.45 14.7 -2.18 14.68 -2.92 14.64 -3.66 14.54 -4.41 14.43 -5.16 14.29 -5.92 14.12 -6.67 13.91 -7.43 13.65 -131.53 -75.95 3.75 -6.89 3.35 -6.97 2.95 -7.03 2.56 -7.11 2.18 -7.17 1.82 -7.22 1.45 -7.28 1.09 -7.3 0.72 -7.33 0.37 -7.34 0.01 -7.34 -0.34 -7.33 -0.69 -7.3 -1.03 -7.25 -1.39 -7.19 -1.72 -7.11 -2.06 -7.03 -2.4 -6.93 -2.71 -6.8 -3.05 -6.66 -3.37 -6.52 -3.67 -6.35 -3.98 -6.18 -4.29 -5.98 -4.59 -5.79 -4.9 -5.58 -5.19 -5.36 -5.48 -5.11 -5.79 -4.89 -6.08 -4.63 -6.39 -4.38 -6.73 -4.11 0 0 75.95 -131.53zm-414.94 111.18l0 0 8.1 -13.25 8.71 -12.73 9.27 -12.18 9.79 -11.61 10.3 -11.03 10.76 -10.45 11.22 -9.84 11.62 -9.23 12 -8.61 12.37 -8 12.7 -7.35 12.99 -6.72 13.27 -6.08 13.53 -5.42 13.77 -4.77 13.96 -4.1 14.14 -3.44 14.29 -2.76 14.43 -2.09 14.54 -1.39 14.62 -0.69 14.68 0.01 14.72 0.73 14.71 1.44 14.7 2.18 14.65 2.92 14.56 3.66 14.47 4.4 14.3 5.17 14.14 5.93 13.93 6.68 13.68 7.44 -75.95 131.53 -6.91 -3.76 -6.99 -3.36 -7.06 -2.95 -7.11 -2.57 -7.18 -2.18 -7.23 -1.82 -7.28 -1.44 -7.31 -1.09 -7.33 -0.72 -7.34 -0.36 -7.34 -0.01 -7.33 0.34 -7.29 0.7 -7.25 1.04 -7.2 1.39 -7.11 1.73 -7.03 2.07 -6.91 2.4 -6.8 2.72 -6.67 3.06 -6.51 3.37 -6.35 3.67 -6.17 3.99 -6 4.29 -5.78 4.59 -5.56 4.9 -5.35 5.18 -5.12 5.49 -4.86 5.78 -4.63 6.07 -4.36 6.37 -4.1 6.71 0 0 -131.53 -75.95zm111.18 414.94l-13.28 -8.13 -12.75 -8.72 -12.19 -9.28 -11.63 -9.82 -11.04 -10.32 -10.46 -10.78 -9.85 -11.23 -9.23 -11.63 -8.61 -12.02 -7.99 -12.39 -7.35 -12.71 -6.72 -13 -6.06 -13.29 -5.41 -13.53 -4.76 -13.77 -4.1 -13.96 -3.42 -14.15 -2.74 -14.29 -2.07 -14.43 -1.38 -14.53 -0.69 -14.62 0.03 -14.67 0.73 -14.7 1.45 -14.7 2.18 -14.68 2.92 -14.64 3.66 -14.54 4.41 -14.43 5.16 -14.29 5.92 -14.12 6.67 -13.91 7.43 -13.65 131.53 75.95 -3.75 6.89 -3.35 6.97 -2.95 7.03 -2.56 7.11 -2.18 7.17 -1.82 7.22 -1.45 7.28 -1.09 7.3 -0.72 7.33 -0.37 7.34 -0.01 7.34 0.34 7.33 0.69 7.3 1.03 7.25 1.39 7.19 1.72 7.11 2.06 7.03 2.4 6.93 2.71 6.8 3.05 6.66 3.37 6.52 3.67 6.35 3.98 6.18 4.29 5.98 4.59 5.79 4.9 5.58 5.19 5.36 5.48 5.11 5.79 4.89 6.08 4.63 6.39 4.38 6.73 4.11 -75.95 131.53zm677.41 2064.17l-75.95 131.53 0 0 -74.35 -45.46 -71.24 -48.69 -68.06 -51.74 -64.83 -54.63 -61.57 -57.41 -58.25 -59.99 -54.89 -62.48 -51.49 -64.77 -48.06 -66.94 -44.57 -68.96 -41.07 -70.83 -37.5 -72.55 -33.9 -74.13 -30.29 -75.56 -26.62 -76.86 -22.9 -78 -19.16 -79.01 -15.38 -79.86 -11.56 -80.58 -7.7 -81.15 -3.8 -81.57 0.15 -81.88 4.12 -82 8.14 -81.99 12.21 -81.85 16.31 -81.54 20.45 -81.09 24.6 -80.49 28.82 -79.74 33.08 -78.83 37.36 -77.79 41.65 -76.56 131.53 75.95 -37.99 69.82 -34.02 70.85 -30.1 71.79 -26.24 72.55 -22.39 73.23 -18.6 73.77 -14.82 74.18 -11.11 74.45 -7.41 74.61 -3.76 74.64 -0.13 74.51 3.45 74.28 7.01 73.9 10.53 73.39 14 72.74 17.46 71.97 20.86 71.05 24.25 69.99 27.58 68.82 30.89 67.52 34.14 66.05 37.37 64.46 40.57 62.76 43.73 60.91 46.84 58.94 49.94 56.82 52.98 54.59 56.01 52.22 58.99 49.73 61.96 47.11 64.89 44.34 67.83 41.48 0 0zm2107.5 -564.71l131.53 75.95 -45.46 74.35 -48.69 71.24 -51.73 68.06 -54.64 64.83 -57.4 61.57 -60.02 58.25 -62.47 54.89 -64.77 51.49 -66.94 48.06 -68.95 44.57 -70.84 41.07 -72.55 37.5 -74.12 33.9 -75.56 30.29 -76.87 26.62 -78 22.9 -79 19.16 -79.87 15.38 -80.57 11.56 -81.15 7.7 -81.58 3.8 -81.88 -0.15 -81.99 -4.12 -82 -8.14 -81.85 -12.21 -81.54 -16.31 -81.09 -20.45 -80.49 -24.6 -79.74 -28.82 -78.83 -33.08 -77.79 -37.36 -76.56 -41.65 75.95 -131.53 69.82 37.99 70.85 34.02 71.79 30.1 72.55 26.24 73.23 22.39 73.77 18.6 74.18 14.82 74.45 11.11 74.62 7.41 74.63 3.76 74.51 0.13 74.29 -3.45 73.9 -7.01 73.38 -10.53 72.75 -14 71.96 -17.46 71.05 -20.86 70 -24.25 68.82 -27.58 67.51 -30.89 66.05 -34.14 64.47 -37.37 62.75 -40.57 60.91 -43.73 58.94 -46.84 56.83 -49.94 54.59 -52.98 52.21 -56.01 49.74 -58.99 47.1 -61.96 44.34 -64.89 41.48 -67.83z" />
    </g>
    <path class="fil4 str2" d="M1926.8 7557.29c-178.97,309.99 -72.76,706.38 237.22,885.35 309.99,178.97 706.38,72.76 885.35,-237.23" />
    <g>
      <path class="fil1" d="M2414.56 6864.36l-421.99 730.91 -131.53 -75.95 421.99 -730.91 131.53 75.95zm-223.88 -371.62l131.54 75.93 0 0 -3.76 6.9 -3.35 6.97 -2.95 7.03 -2.56 7.11 -2.18 7.17 -1.82 7.22 -1.45 7.28 -1.09 7.3 -0.72 7.33 -0.37 7.34 -0.01 7.34 0.34 7.33 0.69 7.3 1.03 7.25 1.39 7.19 1.72 7.11 2.06 7.03 2.4 6.93 2.71 6.8 3.05 6.66 3.37 6.52 3.67 6.35 3.98 6.18 4.29 5.98 4.59 5.79 4.9 5.58 5.19 5.35 5.48 5.12 5.79 4.89 6.08 4.63 6.39 4.38 6.72 4.1 -75.93 131.54 -13.28 -8.13 -12.75 -8.72 -12.19 -9.28 -11.63 -9.82 -11.04 -10.32 -10.46 -10.78 -9.85 -11.23 -9.23 -11.65 -8.61 -12.01 -7.99 -12.39 -7.35 -12.71 -6.72 -13 -6.07 -13.29 -5.4 -13.54 -4.76 -13.76 -4.1 -13.97 -3.42 -14.14 -2.74 -14.3 -2.07 -14.42 -1.38 -14.53 -0.69 -14.62 0.03 -14.67 0.73 -14.7 1.45 -14.7 2.18 -14.69 2.92 -14.63 3.67 -14.55 4.4 -14.43 5.16 -14.28 5.92 -14.12 6.67 -13.91 7.43 -13.65 0 0zm414.94 -111.18l-75.93 131.54 0 0 -6.92 -3.77 -6.99 -3.36 -7.06 -2.95 -7.11 -2.57 -7.18 -2.18 -7.23 -1.82 -7.28 -1.44 -7.31 -1.09 -7.33 -0.72 -7.34 -0.36 -7.34 -0.01 -7.33 0.34 -7.29 0.7 -7.25 1.04 -7.19 1.39 -7.13 1.73 -7.03 2.07 -6.91 2.4 -6.8 2.72 -6.67 3.06 -6.51 3.37 -6.35 3.67 -6.17 3.99 -6 4.29 -5.78 4.59 -5.56 4.9 -5.35 5.18 -5.11 5.49 -4.88 5.77 -4.63 6.08 -4.36 6.37 -4.09 6.69 -131.54 -75.93 8.1 -13.25 8.71 -12.73 9.27 -12.18 9.79 -11.61 10.3 -11.03 10.77 -10.45 11.2 -9.84 11.62 -9.23 12.01 -8.61 12.36 -8 12.7 -7.35 12.99 -6.72 13.28 -6.08 13.52 -5.42 13.77 -4.77 13.96 -4.1 14.14 -3.44 14.29 -2.76 14.43 -2.09 14.54 -1.39 14.62 -0.69 14.69 0.01 14.71 0.73 14.71 1.44 14.7 2.18 14.65 2.92 14.56 3.66 14.47 4.4 14.32 5.17 14.13 5.93 13.93 6.68 13.68 7.44 0 0zm111.18 414.94l-131.54 -75.93 0 0 3.76 -6.9 3.35 -6.97 2.95 -7.03 2.56 -7.11 2.18 -7.17 1.82 -7.22 1.45 -7.28 1.09 -7.3 0.72 -7.33 0.37 -7.34 0.01 -7.34 -0.34 -7.33 -0.69 -7.3 -1.03 -7.25 -1.39 -7.19 -1.72 -7.11 -2.06 -7.03 -2.4 -6.93 -2.71 -6.8 -3.05 -6.66 -3.37 -6.52 -3.67 -6.35 -3.98 -6.18 -4.29 -5.98 -4.59 -5.79 -4.9 -5.58 -5.19 -5.35 -5.48 -5.12 -5.79 -4.89 -6.08 -4.63 -6.39 -4.38 -6.72 -4.1 75.93 -131.54 13.28 8.13 12.75 8.72 12.19 9.28 11.63 9.82 11.04 10.32 10.46 10.78 9.85 11.23 9.23 11.65 8.61 12.01 7.99 12.39 7.35 12.71 6.72 13 6.07 13.29 5.4 13.54 4.76 13.76 4.1 13.97 3.42 14.14 2.74 14.3 2.07 14.42 1.38 14.53 0.69 14.62 -0.03 14.67 -0.73 14.7 -1.45 14.7 -2.18 14.69 -2.92 14.63 -3.67 14.55 -4.4 14.43 -5.16 14.28 -5.92 14.12 -6.67 13.91 -7.43 13.65 0 0zm-414.94 111.18l75.93 -131.54 6.92 3.77 6.99 3.36 7.06 2.95 7.11 2.57 7.18 2.18 7.23 1.82 7.28 1.44 7.31 1.09 7.33 0.72 7.34 0.36 7.34 0.01 7.33 -0.34 7.29 -0.7 7.25 -1.04 7.19 -1.39 7.13 -1.73 7.03 -2.07 6.91 -2.4 6.8 -2.72 6.67 -3.06 6.51 -3.37 6.35 -3.67 6.17 -3.99 6 -4.29 5.78 -4.59 5.56 -4.9 5.35 -5.18 5.11 -5.49 4.88 -5.77 4.63 -6.08 4.36 -6.37 4.09 -6.69 131.54 75.93 -8.1 13.25 -8.71 12.73 -9.27 12.18 -9.79 11.61 -10.3 11.03 -10.77 10.45 -11.2 9.84 -11.62 9.23 -12.01 8.61 -12.36 8 -12.7 7.35 -12.99 6.72 -13.28 6.08 -13.52 5.42 -13.77 4.77 -13.96 4.1 -14.14 3.44 -14.29 2.76 -14.43 2.09 -14.54 1.39 -14.62 0.69 -14.69 -0.01 -14.71 -0.73 -14.71 -1.44 -14.7 -2.18 -14.65 -2.92 -14.56 -3.66 -14.47 -4.4 -14.32 -5.17 -14.13 -5.93 -13.93 -6.68 -13.68 -7.44z" />
    </g>
  </g>
</svg>
